{"title":"Hijacked 2012 BRRip XviD AC3-BTRG","uid":7434492,"size":735905952,"categoryP":"video","categoryS":"movies","magnet":"?xt=urn:btih:a9f1622f7fc35d0725f0141eaf0de47bcb42caa9&amp;dn=Hijacked+2012+BRRip+XviD+AC3-BTRG&amp;tr=udp%3A%2F%2Ftracker.openbittorrent.com%3A80&amp;tr=udp%3A%2F%2Fopen.demonii.com%3A1337&amp;tr=udp%3A%2F%2Ftracker.coppersurfer.tk%3A6969&amp;tr=udp%3A%2F%2Fexodus.desync.com%3A6969","seeders":0,"leechers":0,"uploader":"tykoon123","files":-1,"time":1342032800,"description":"Cover: &lt;a href=&quot;\nhttp://imgh.us/KQhHQabl.jpeg&quot; rel=&quot;nofollow&quot; target=&quot;_NEW&quot;&gt;\nhttp://imgh.us/KQhHQabl.jpeg&lt;/a&gt;\n\nInfo:\n\nFormat : AVI\nFormat/Info : Audio Video Interleave\nFile size : 702 MiB\nDuration : 1h 30mn\nOverall bit rate : 1 087 Kbps\nWriting application : VirtualDubMod 1.5.10.3 | www.virtualdub-fr.org || (build 2550/release)\nWriting library : VirtualDubMod build 2550/release\n\nVideo\nID : 0\nFormat : MPEG-4 Visual\nFormat profile : Advanced Simple@L5\nFormat settings, BVOP : 1\nFormat settings, QPel : No\nFormat settings, GMC : No warppoints\nFormat settings, Matrix : Custom\nCodec ID : XVID\nCodec ID/Hint : XviD\nDuration : 1h 30mn\nBit rate : 949 Kbps\nWidth : 672 pixels\nHeight : 384 pixels\nDisplay aspect ratio : 16:9\nFrame rate : 23.976 fps\nColor space : YUV\nChroma subsampling : 4:2:0\nBit depth : 8 bits\nScan type : Progressive\nCompression mode : Lossy\nBits/(Pixel*Frame) : 0.153\nStream size : 613 MiB (87%)\nWriting library : XviD 1.2.1 (UTC 2008-12-04)\n\nAudio\nID : 1\nFormat : AC-3\nFormat/Info : Audio Coding 3\nMode extension : CM (complete main)\nFormat settings, Endianness : Big\nCodec ID : 2000\nDuration : 1h 30mn\nBit rate mode : Constant\nBit rate : 128 Kbps\nChannel(s) : 6 channels\nChannel positions : Front: L C R, Side: L R, LFE\nSampling rate : 48.0 KHz\nBit depth : 16 bits\nCompression mode : Lossy\nStream size : 82.6 MiB (12%)\nAlignment : Split accross interleaves\nInterleave, duration : 42 ms (1.00 video frame)\nInterleave, preload duration : 500 ms\n\n\n\nSCREENS: &lt;a href=&quot;\nhttp://imgh.us/SOWqWcoO.png&quot; rel=&quot;nofollow&quot; target=&quot;_NEW&quot;&gt;\nhttp://imgh.us/SOWqWcoO.png&lt;/a&gt; &lt;a href=&quot;\nhttp://imgh.us/MNMOnaC4.png&quot; rel=&quot;nofollow&quot; target=&quot;_NEW&quot;&gt;\nhttp://imgh.us/MNMOnaC4.png&lt;/a&gt; &lt;a href=&quot;\nhttp://imgh.us/0FP5IVA.png&quot; rel=&quot;nofollow&quot; target=&quot;_NEW&quot;&gt;\nhttp://imgh.us/0FP5IVA.png&lt;/a&gt; &lt;a href=&quot;\nhttp://imgh.us/wxIwThfW.png&quot; rel=&quot;nofollow&quot; target=&quot;_NEW&quot;&gt;\nhttp://imgh.us/wxIwThfW.png&lt;/a&gt;\n","torrent":{"xt":"urn:btih:a9f1622f7fc35d0725f0141eaf0de47bcb42caa9","amp;dn":"Hijacked+2012+BRRip+XviD+AC3-BTRG","amp;tr":["udp%3A%2F%2Ftracker.openbittorrent.com%3A80","udp%3A%2F%2Fopen.demonii.com%3A1337","udp%3A%2F%2Ftracker.coppersurfer.tk%3A6969","udp%3A%2F%2Fexodus.desync.com%3A6969"],"infoHash":"a9f1622f7fc35d0725f0141eaf0de47bcb42caa9","infoHashBuffer":{"type":"Buffer","data":[169,241,98,47,127,195,93,7,37,240,20,30,175,13,228,123,203,66,202,169]},"announce":[],"urlList":[]}}